<svg xmlns="http://www.w3.org/2000/svg" width="84.597" height="90" viewBox="0 0 84.597 90">
  <g id="cadastro" transform="translate(-2.701)">
    <g id="Grupo_4" data-name="Grupo 4">
      <path id="Caminho_14" data-name="Caminho 14" d="M66.546,0H13.709A4.424,4.424,0,0,0,9.29,4.419V6.1H7.12A4.424,4.424,0,0,0,2.7,10.52V67a1.318,1.318,0,0,0,2.637,0V10.52A1.784,1.784,0,0,1,7.12,8.738H59.957a1.784,1.784,0,0,1,1.782,1.782V85.581a1.784,1.784,0,0,1-1.782,1.782H7.12a1.784,1.784,0,0,1-1.782-1.782V73.154a1.318,1.318,0,0,0-2.637,0V85.581A4.424,4.424,0,0,0,7.12,90H59.957a4.424,4.424,0,0,0,4.419-4.419V83.9h2.17a4.424,4.424,0,0,0,4.419-4.419V21.18a1.318,1.318,0,0,0-2.637,0v58.3a1.784,1.784,0,0,1-1.782,1.782H64.864V10.52A4.424,4.424,0,0,0,60.445,6.1H11.927V4.419a1.784,1.784,0,0,1,1.782-1.782H66.546a1.784,1.784,0,0,1,1.782,1.782V15.028a1.318,1.318,0,1,0,2.637,0V4.419A4.424,4.424,0,0,0,66.546,0Z" fill="#12203a"/>
      <path id="Caminho_15" data-name="Caminho 15" d="M84.325,26.155H77.292a2.977,2.977,0,0,0-2.973,2.973V66.553c0,.025,0,.05,0,.075s0,.027,0,.041a1.318,1.318,0,0,0,.064.3L74.4,67q.022.061.05.119c0,.006,0,.013.008.019l4.326,8.667a2.195,2.195,0,0,0,4.051,0l4.326-8.667c0-.008.006-.016.01-.023.017-.036.032-.072.046-.11,0-.013.01-.025.014-.038a1.3,1.3,0,0,0,.038-.139l0-.01a1.308,1.308,0,0,0,.022-.15c0-.017,0-.034,0-.052s0-.045,0-.068V29.129a2.977,2.977,0,0,0-2.973-2.973ZM80.808,73.963l-3.04-6.091h6.08Zm3.853-8.728H76.955V37.043h7.707Zm0-30.829H76.955V29.129a.337.337,0,0,1,.337-.337h7.034a.337.337,0,0,1,.337.337v5.277Z" fill="#12203a"/>
      <path id="Caminho_16" data-name="Caminho 16" d="M10.234,80.2a2.728,2.728,0,0,0,2.725,2.725h7.266A2.728,2.728,0,0,0,22.948,80.2V73.259l3.008-3.2a1.318,1.318,0,0,0-1.921-1.806l-2.283,2.429a2.708,2.708,0,0,0-1.528-.47H12.958a2.728,2.728,0,0,0-2.725,2.725Zm10.078-4.138V80.2a.088.088,0,0,1-.088.088H16.317a1.317,1.317,0,0,0,.148-.133ZM12.87,72.936a.088.088,0,0,1,.088-.088h6.758l-4.027,4.284-2.363-3.6a1.311,1.311,0,0,0-.455-.425v-.171Zm0,4.708c1.669,2.544,1.589,2.464,1.82,2.646H12.958a.088.088,0,0,1-.088-.088Z" fill="#12203a"/>
      <path id="Caminho_17" data-name="Caminho 17" d="M55.481,75.25H27.473a1.318,1.318,0,1,0,0,2.637H55.481a1.318,1.318,0,1,0,0-2.637Z" fill="#12203a"/>
      <path id="Caminho_18" data-name="Caminho 18" d="M13.31,42.7H36.681a3.08,3.08,0,0,0,3.076-3.076V16.251a3.08,3.08,0,0,0-3.076-3.076H13.31a3.08,3.08,0,0,0-3.076,3.076V39.623A3.08,3.08,0,0,0,13.31,42.7ZM12.87,16.251a.44.44,0,0,1,.439-.439H36.681a.44.44,0,0,1,.439.439V39.623a.44.44,0,0,1-.439.439H13.31a.44.44,0,0,1-.439-.439Z" fill="#12203a"/>
      <path id="Caminho_19" data-name="Caminho 19" d="M19.863,37.949a1.32,1.32,0,0,0,1.32-1.317V33.785a3.827,3.827,0,0,1,3.8-3.814h.033a3.827,3.827,0,0,1,3.8,3.814v1.529H26.016a1.318,1.318,0,1,0,0,2.637s0,0,0,0h4.108a1.317,1.317,0,0,0,1.318-1.317V33.785a6.407,6.407,0,0,0-1.89-4.562,6.525,6.525,0,0,0-.73-.63,6.024,6.024,0,1,0-7.661,0,6.535,6.535,0,0,0-.731.63,6.406,6.406,0,0,0-1.888,4.562v2.847a1.314,1.314,0,0,0,1.317,1.317ZM25,20.561a3.387,3.387,0,0,1,.011,6.774h-.023A3.387,3.387,0,0,1,25,20.561Z" fill="#12203a"/>
      <path id="Caminho_20" data-name="Caminho 20" d="M43.829,22.248H55.481a1.318,1.318,0,1,0,0-2.637H43.829a1.318,1.318,0,0,0,0,2.637Z" fill="#12203a"/>
      <path id="Caminho_21" data-name="Caminho 21" d="M43.829,29.722H55.481a1.318,1.318,0,1,0,0-2.637H43.829a1.318,1.318,0,0,0,0,2.637Z" fill="#12203a"/>
      <path id="Caminho_22" data-name="Caminho 22" d="M43.829,37.695H55.481a1.318,1.318,0,1,0,0-2.637H43.829a1.318,1.318,0,0,0,0,2.637Z" fill="#12203a"/>
      <path id="Caminho_23" data-name="Caminho 23" d="M11.552,50.425H55.481a1.318,1.318,0,1,0,0-2.637H11.552a1.318,1.318,0,1,0,0,2.637Z" fill="#12203a"/>
      <path id="Caminho_24" data-name="Caminho 24" d="M11.552,57.9H55.481a1.318,1.318,0,1,0,0-2.637H11.552a1.318,1.318,0,1,0,0,2.637Z" fill="#12203a"/>
      <path id="Caminho_25" data-name="Caminho 25" d="M11.552,65.374H55.481a1.318,1.318,0,1,0,0-2.637H11.552a1.318,1.318,0,1,0,0,2.637Z" fill="#12203a"/>
    </g>
  </g>
</svg>
