<svg xmlns="http://www.w3.org/2000/svg" xmlns:xlink="http://www.w3.org/1999/xlink" width="90" height="90" viewBox="0 0 90 90">
  <defs>
    <clipPath id="clip-path">
      <rect id="Retângulo_42" data-name="Retângulo 42" width="90" height="90" transform="translate(420 3237)" fill="#12203a" stroke="#707070" stroke-width="1"/>
    </clipPath>
  </defs>
  <g id="doador-icon" transform="translate(-420 -3237)" clip-path="url(#clip-path)">
    <g id="heart" transform="translate(420 3241.298)">
      <path id="Caminho_10" data-name="Caminho 10" d="M8.789,46.16a1.758,1.758,0,1,0,1.758,1.758A1.759,1.759,0,0,0,8.789,46.16Zm0,0" fill="#12203a"/>
      <path id="Caminho_11" data-name="Caminho 11" d="M80.792,52.255l-16.572,5.7A7.014,7.014,0,0,0,57.3,49.675H45.921a1.759,1.759,0,0,1-.863-.226l-9.287-5.223a12.315,12.315,0,0,0-6.034-1.582H17.275A5.281,5.281,0,0,0,12.3,39.129H1.758A1.758,1.758,0,0,0,0,40.886v31.64a1.758,1.758,0,0,0,1.758,1.758H12.3A5.284,5.284,0,0,0,17.226,70.9a16.047,16.047,0,0,1,5.739,1.7l9.193,5.516a22.408,22.408,0,0,0,20.8,1.187L85.769,64.861a6.777,6.777,0,0,0-4.977-12.606ZM14.063,69.019a1.76,1.76,0,0,1-1.758,1.75H3.516V42.644H12.3A1.76,1.76,0,0,1,14.063,44.4ZM84.434,61.61l-.056.023L51.514,76.1a18.892,18.892,0,0,1-17.547-1L24.774,69.59a19.382,19.382,0,0,0-7.2-2.188V46.16H29.737a8.794,8.794,0,0,1,4.31,1.13l9.287,5.223a5.281,5.281,0,0,0,2.587.678H57.3a3.516,3.516,0,1,1,0,7.031H39.435a1.757,1.757,0,1,0,0,3.515H57.3a7.018,7.018,0,0,0,3.3-.823l21.373-7.347a3.263,3.263,0,1,1,2.461,6.043Zm0,0" fill="#12203a"/>
      <path id="Caminho_12" data-name="Caminho 12" d="M51.2,42.725a1.759,1.759,0,0,0,2.3,0C67.841,30.295,76.712,24,76.712,14.23,76.712,6.5,71.238.088,63.547.088,58.5.088,54.628,3,52.137,7.369,49.651,3.009,45.787.088,40.729.088a12.983,12.983,0,0,0-12.541,9.72,1.758,1.758,0,1,0,3.374.989A9.538,9.538,0,0,1,40.729,3.6c5.015,0,8.532,4.453,9.714,8.6a1.758,1.758,0,0,0,3.388,0c.024-.086,2.466-8.6,9.716-8.6,5.5,0,9.65,4.568,9.65,10.626,0,7.82-7.644,13.457-20.851,24.844C44.3,32.163,37.907,27.3,34.274,22.541a1.758,1.758,0,1,0-2.795,2.133c4.1,5.363,11.008,10.5,19.716,18.051Zm0,0" fill="#12203a"/>
      <path id="Caminho_13" data-name="Caminho 13" d="M29.707,15.574a1.758,1.758,0,1,0,1.758,1.758A1.759,1.759,0,0,0,29.707,15.574Zm0,0" fill="#12203a"/>
    </g>
  </g>
</svg>
