<svg xmlns="http://www.w3.org/2000/svg" width="40" height="23.626" viewBox="0 0 40 23.626">
  <g id="left-arrow" transform="translate(0 -16)">
    <g id="Grupo_1" data-name="Grupo 1" transform="translate(0 16)">
      <path id="Caminho_2" data-name="Caminho 2" d="M39.361,1.975,38.05.655a2.193,2.193,0,0,0-3.095,0L20.009,15.6,5.045.639a2.194,2.194,0,0,0-3.095,0L.64,1.95a2.19,2.19,0,0,0,0,3.094l17.816,17.88a2.237,2.237,0,0,0,1.552.7h.007a2.236,2.236,0,0,0,1.547-.7l17.8-17.832A2.21,2.21,0,0,0,40,3.53,2.188,2.188,0,0,0,39.361,1.975Z" fill="#fec63e"/>
    </g>
  </g>
</svg>
